<?xml version="1.0" encoding="UTF-8"?>
<svg width="220px" height="187px" viewBox="0 0 220 187" version="1.1" xmlns="http://www.w3.org/2000/svg" xmlns:xlink="http://www.w3.org/1999/xlink">
    <!-- Generator: Sketch 52.3 (67297) - http://www.bohemiancoding.com/sketch -->
    <title>AppFramework_WebVisuals_USP_Editors</title>
    <desc>Created with Sketch.</desc>
    <defs>
        <linearGradient x1="0.00441644635%" y1="50.0194563%" x2="100.006762%" y2="50.0194563%" id="linearGradient-1">
            <stop stop-color="#CFEDF9" offset="0%"></stop>
            <stop stop-color="#F5FAFD" offset="100%"></stop>
        </linearGradient>
    </defs>
    <g id="Apps-Framework-landig-page" stroke="none" stroke-width="1" fill="none" fill-rule="evenodd">
        <g id="Apps-Framework_for_Development" transform="translate(-1080.000000, -2662.000000)" fill-rule="nonzero">
            <g id="Group-21" transform="translate(262.000000, 2425.000000)">
                <g id="Group-4">
                    <g id="Group-27">
                        <g id="AppFramework_WebVisuals_USP_Editors" transform="translate(818.000000, 237.000000)">
                            <path d="M210.060918,41.7664984 C194.686975,6.77495785 153.813878,-9.1573606 118.822338,6.2165822 C103.56007,12.91709 91.9458565,24.4568533 84.9475484,38.2673443 L84.9475484,38.2301193 C70.7275819,61.9424717 39.2351954,74.7851116 29.5194592,78.2470406 C28.6632832,78.5076159 27.8071072,78.8054163 26.9509312,79.1404416 C26.727581,79.2148917 26.6159058,79.2521168 26.6159058,79.2521168 L26.6159058,79.2893418 C26.2808804,79.438242 25.945855,79.5499171 25.5736046,79.6988173 C8.07783435,87.4044012 0.111675129,107.803725 7.81725905,125.33672 C12.6565147,136.392558 22.5956012,143.614216 33.651439,145.512694 C57.4754666,150.8731 77.3164145,168.66667 77.3164145,168.66667 L77.3536396,168.406095 C92.0575316,181.397635 113.536381,185.49239 132.670054,177.07953 C138.961086,174.324877 144.395942,170.453472 148.937397,165.837567 C148.937397,165.837567 151.878176,162.561763 152.324876,162.003388 C169.671746,141.566839 190.592221,123.624368 190.592221,123.624368 L189.92217,123.736043 C213.857873,104.639596 222.978008,71.1370574 210.060918,41.7664984 Z" id="Path" fill="url(#linearGradient-1)"></path>
                            <path d="M134.494081,130.399326 C138.067685,136.541458 146.257194,138.849411 149.644673,145.065993 C150.984775,147.522846 151.431475,150.389174 151.505925,153.181052 C151.54315,154.967854 151.4687,156.754657 150.94755,158.467009 C149.532998,163.231814 144.842643,166.507618 139.928937,167.252119 C135.015231,167.99662 129.989851,166.544843 125.63452,164.199665 C119.790189,161.072762 114.839258,156.419631 110.707278,151.24535 C106.575298,146.071069 103.150594,140.338413 99.8003406,134.605756 C97.6785131,130.957702 95.5194606,127.123522 95.5566857,122.917092 C95.5566857,122.135366 95.6311357,121.353641 96.0033862,120.646365 C97.0456874,118.561762 97.3434877,119.269038 99.5025402,118.487312 C102.182743,117.519461 106.240273,123.549918 108.994926,122.768192 C112.19628,121.874791 115.658209,122.879867 118.971238,122.507617 C120.944165,122.284267 122.917092,121.576991 124.852795,121.949241 C125.895096,122.135366 126.862947,122.619292 127.793573,123.103218 C129.654825,124.033844 132.148903,115.918784 134.010155,116.84941 C134.233505,116.961085 134.531306,117.109986 134.791881,117.035536 C135.052456,116.99831 134.605756,125.708971 134.456856,125.48562 C134.307956,125.26227 133.861255,125.48562 134.010155,125.708971" id="Path" fill="#0959AA"></path>
                            <g id="Group" transform="translate(47.275805, 122.098141)">
                                <path d="M63.5431486,0 C56.2098151,1.8984772 48.9137066,3.7969544 41.5803732,5.65820655 C32.0507621,8.1150594 19.5059226,17.1235198 11.0930628,22.2605758 C7.07275819,24.7174286 3.42470397,27.7326571 0.223350259,31.2318112 C4.318105,37.4111683 11.7631136,36.8155676 16.7884944,42.2504239 C23.0795267,49.0626068 30.18951,55.3536391 38.5651447,59.4111688 C46.9035543,63.5059235 56.6192906,65.2555006 65.627751,62.9847729 C69.4247054,62.0169218 72.9983095,60.3790199 76.5719137,58.741118 C82.1556701,56.17259 88.5211525,55.0930638 91.499156,51.7428099 C95.6683608,47.0524545 98.0879886,37.969544 99.8003406,31.976312 C101.624368,25.6852797 103.187819,18.5380715 99.9120157,12.8798649" id="Path" fill="#3D6CBE"></path>
                                <path d="M63.5431486,0 C56.2098151,1.8984772 48.9137066,3.7969544 41.5803732,5.65820655 C32.0507621,8.1150594 19.5059226,17.1235198 11.0930628,22.2605758 C7.07275819,24.7174286 3.42470397,27.7326571 0.223350259,31.2318112 C-1.41455164,33.0186132 13.1404402,38.9373951 14.0710663,39.5702208 C20.4365487,43.6277505 25.7225048,49.9187828 32.0135371,54.3113379 C37.0761429,47.6480552 43.8883258,42.5482243 49.9187828,36.7783426 C59.597294,27.5465319 67.4517781,16.6395943 75.2318121,5.76988168 C72.9610845,3.72250431 70.1692063,2.23350259 67.2284279,1.41455164" id="Path" fill="#3368B5"></path>
                            </g>
                            <path d="M169.336721,106.426398 C167.326569,108.697126 165.688667,111.340104 164.497465,114.131982 C164.348565,114.504233 164.199665,114.950933 164.348565,115.323184 C164.646366,116.067684 165.763117,115.918784 166.507618,115.620984 C172.910325,113.089681 179.089682,109.925552 184.934014,106.277498 C186.423016,105.346872 188.023693,104.155671 188.321493,102.406094 C188.395943,102.033843 188.358718,101.587143 188.172593,101.252117 C187.725892,100.358716 186.497466,100.284266 185.49239,100.358716 C181.65821,100.656517 177.898481,101.252117 174.175977,102.145518" id="Path" fill="#0959AA"></path>
                            <path d="M107.878175,77.72589 C106.091373,76.1624382 104.341796,74.5617613 102.554994,72.9983095 C101.847718,72.3654838 100.954317,71.695433 100.060916,71.9932334 C99.4653152,72.1793586 99.0558397,72.7377342 98.8697145,73.3333349 C98.3113388,74.9340118 98.9441646,76.6463638 99.5769903,78.2098156 C101.661593,83.4585466 103.746195,88.7072777 105.830798,93.9560088 C106.351948,95.2588853 106.873099,96.5989869 107.84095,97.6412881 C108.771576,98.6835893 110.260578,99.3908651 111.600679,99.0558397 C113.275806,98.6463642 114.243657,96.9340123 114.764808,95.2961104 C116.104909,91.0524554 115.472084,86.2131998 113.126906,82.4534705" id="Path" fill="#0959AA"></path>
                            <path d="M143.725891,90.7174301 C145.252118,93.5093083 148.862947,94.3654843 152.027076,94.6632846 C156.345181,95.0727601 160.663286,95.0355351 164.981391,94.5888345 C167.698819,94.2910342 170.453472,93.8071086 172.835875,92.5414572 C175.329953,91.2013556 177.265655,89.0795282 179.052457,86.9204757 C181.174285,84.3147226 183.184437,81.5228444 184.263963,78.3587157 C186.460241,71.9932334 184.524539,64.3993246 179.573608,59.8578693 C178.047381,58.4805427 176.297804,57.3637914 174.585452,56.2470401 C174.213202,56.0236899 173.840951,55.7631146 173.654826,55.3536391 C173.431476,54.9069386 173.468701,54.3485629 173.543151,53.8646374 C173.766501,51.81726 174.659902,49.0253818 174.213202,46.9780044 C173.915401,45.749578 172.8731,44.8189519 171.830799,44.1116761 C167.177669,40.9847725 161.370562,39.9052462 156.791882,36.6666675 C156.345181,36.3688671 155.898481,35.9966167 155.67513,35.5499162 C155.22843,34.7309652 155.414555,33.7258891 155.563455,32.795263 C156.010156,29.9661597 155.898481,27.0626063 155.191205,24.2707281 C154.632829,21.9255504 153.553303,19.5431476 151.4687,18.3519463 C150.277499,17.6818955 148.900172,17.4585452 147.560071,17.3840951 C142.720815,17.1235198 137.95601,18.7241967 133.153979,19.3570224 C128.649749,19.9898481 124.033844,19.7664979 119.604064,18.7614217 C115.248733,17.7935706 111.265654,15.560068 106.649749,15.9695435 C101.289342,16.4534691 97.4923879,21.2927247 97.2318126,26.4670056 C97.0829124,29.8917096 98.0507635,33.5769889 100.582066,35.8849416 C102.703894,37.8206438 105.607447,38.5651447 108.28765,39.5702208 C109.851102,40.1285965 111.526229,40.9847725 112.010155,42.5482243 C112.233505,43.218275 112.19628,43.9627759 112.34518,44.6328267 C112.754656,46.2335035 114.280882,47.4247049 115.881559,47.7969554 C117.519461,48.1692058 119.194588,47.9086305 120.795265,47.46193 C121.800341,47.1641296 122.507617,47.3874799 123.549918,47.4247049 C124.294419,47.46193 125.150595,47.6108301 125.522845,48.2436559 C126.192896,49.2859571 125.11337,50.5888336 124.108294,51.2961094 C120.460239,53.7901873 116.067684,55.0186137 112.19628,57.1404412 C108.324875,59.2622686 104.714046,62.8358728 104.527921,67.2284279 C104.379021,70.5414567 106.277498,73.6683603 108.771576,75.8274128 C111.265654,77.9864653 114.355332,79.3265669 117.445011,80.5549933 C124.368869,83.3468715 131.441627,85.7664993 138.55161,88.0000019 C140.226737,88.5211525 141.343489,88.8561779 142.646365,89.9729292 C147.634521,94.2538091 154.111678,94.4771594 160.291036,93.0626078 C165.837567,91.7969563 171.681899,90.0473793 175.329953,85.6920492" id="Path" fill="#306BC4"></path>
                            <path d="M132.372253,74.5617613 C135.461932,69.8714059 136.876484,64.1015242 136.280883,58.5177678 C132.335028,60.7512704 129.431475,61.4585462 127.011847,57.7360419 C125.299495,55.0930638 116.40271,43.7394257 120.90694,33.3164136 C122.023691,30.7106606 124.145519,28.6260582 126.453471,26.9509312 C130.957702,23.7123525 137.062609,22.1489006 142.08799,24.4568533 C147.03892,26.764806 149.756348,32.1996623 151.133675,37.4856184 C154.148904,48.9881567 151.505925,47.2758047 151.133675,59.1505935 C150.984775,63.5803736 153.404403,76.7952639 156.121831,80.294418 C151.282575,80.7038935 137.658209,94.5516095 125.41117,92.7275824 L132.372253,74.5617613 Z" id="Path" fill="#BA9755"></path>
                            <path d="M89.5634537,104.788496 C96.2639615,103.448395 102.480544,99.5397653 108.027075,95.7428109 C114.280882,91.499156 120.60914,86.8460256 125.671746,81.2622691 C127.309647,79.475467 129.021999,77.5025398 129.39425,75.0829119 C129.729275,72.9238594 128.761424,70.6159068 127.049072,69.2758052 C125.56007,68.1590539 123.624368,67.7495785 121.763116,67.6379033 C107.357024,66.8561774 100.470391,81.5600694 89.6006788,88.111677 C89.0795282,88.4094774 88.4839275,88.7445028 87.8883268,88.5956026 C87.5533014,88.5211525 81.8950948,79.1776667 78.3587157,75.4179373 C77.1302893,74.1150608 75.976313,72.7005092 74.8595617,71.3231826 C73.0727596,69.1269051 71.3231826,66.8561774 69.6852807,64.5482247 C69.0152299,63.6175987 68.4196292,62.6125225 67.7123534,61.7191215 C67.2656529,61.1607458 66.8189524,60.6395952 66.4094769,60.0812196 C65.8138762,59.3367187 65.2927256,58.5549928 64.9204752,57.6243667 C63.9898491,55.4280892 63.6548237,53.0456864 63.0964481,50.7749588 C62.5008474,48.2808809 61.8680216,45.8240281 61.272421,43.3299502 C61.2351959,43.1065999 61.1607458,42.8832497 61.0118457,42.6971244 C60.6768203,42.287649 58.0710672,41.6548232 56.5820655,41.2825728 C54.6835883,40.7986472 56.17259,44.7445018 55.1675139,46.4196288 C54.1624377,48.0947557 53.6412871,50.0304579 53.4923869,52.0033852 C53.3807118,53.4923869 53.529612,55.0930638 54.423013,56.2842652 C55.1302888,57.2148913 56.2098151,57.7732669 57.1776662,58.4060926 C60.8257204,60.8257204 62.6125225,64.4737747 64.1387493,68.4568543 C66.2978018,74.0778358 67.4890032,80.0338427 69.6852807,85.6175991 C72.2910337,92.2064318 75.9390879,98.5719142 81.3739442,103.150594 C82.1184451,103.78342 82.937396,104.379021 83.8307971,104.751271 C85.6548242,105.458547 87.6649765,105.160747 89.5634537,104.788496 Z" id="Path" fill="#BA9755"></path>
                            <path d="M61.6446714,62.4263973 C61.1979709,63.2081232 62.3519472,64.3620995 62.6869726,65.0321503 C63.2825733,66.1116766 63.6920488,67.3028779 64.1387493,68.4568543 C66.2978018,74.0778358 67.4890032,80.0338427 69.6852807,85.6175991 C72.2910337,92.2064318 75.9390879,98.5719142 81.3739442,103.150594 C82.1184451,103.78342 82.937396,104.379021 83.8307971,104.751271 C85.6175991,105.458547 87.6649765,105.197972 89.5634537,104.825721 C105.681897,101.624368 131.590527,76.5719137 132.148903,75.4923874 C132.856179,74.0778358 133.52623,72.6260591 134.382406,71.3231826 C135.238582,70.0575311 135.685282,68.8291047 135.461932,67.2656529 C135.424707,67.0050776 135.350257,66.7072772 135.089681,66.5956021 C134.866331,66.483927 134.605756,66.5956021 134.345181,66.7072772 C132.558379,67.6006783 130.994927,68.8663297 129.39425,70.0575311 C123.214893,74.6734365 116.25381,78.1353655 109.962777,82.5651456 C103.671745,86.9949257 98.0507635,92.392557 91.3502558,96.1522863 C90.6057549,96.5617618 89.824029,96.9712373 88.967853,97.1201375 C86.9577007,97.4551629 85.0219985,96.1895114 83.4957717,94.8866349 C83.2351964,94.6632846 83.0118461,94.4771594 82.7884959,94.2538091 C78.0236904,89.9729292 74.6362114,84.4636228 71.5465329,78.9543164 C68.4940793,73.5194601 65.8511013,67.0795277 61.6446714,62.4263973 Z" id="Path" fill="#B6914B"></path>
                            <path d="M60.6768203,44.2978013 C60.6768203,41.3197978 50.1421331,39.719121 48.1319807,39.1607453 C47.9458555,39.1235203 47.7597303,39.0490702 47.5736051,39.1235203 C47.1641296,39.2351954 47.0524545,39.7935711 47.2385797,40.1658215 C47.4247049,40.5380719 47.8341804,40.7614222 48.2064308,40.9475474 C50.2165832,41.9526236 52.3011856,42.8460246 54.423013,43.5533004" id="Path" fill="#BA9755"></path>
                            <path d="M186.944166,122.135366 C186.236891,123.847718 185.306265,125.522845 183.928938,126.751272 C182.551611,127.979698 180.653134,128.724199 178.829107,128.463624 C176.186129,128.054148 174.250427,125.708971 172.94755,123.363793 C170.602373,119.157363 169.857872,114.467008 167.959395,110.111678 C166.023692,105.644672 163.678515,101.401017 160.961086,97.3807128 C160.514386,96.710662 159.993235,96.0033862 159.285959,95.6311357 C158.727584,95.3705604 158.094758,95.2961104 157.499157,95.2216603 C155.37733,94.99831 151.915401,94.8866349 150.054149,93.7326585 C148.118447,92.5042321 148.043996,89.0050781 148.490697,86.9949257 C149.049073,84.6869731 150.426399,82.6395957 152.027076,80.8900187 C155.563455,77.0930643 160.439936,74.5617613 165.614217,74.0778358 C167.661594,73.8917106 167.549919,75.3807123 169.411171,76.2741133 C173.617601,78.2470406 177.265655,83.6446719 178.866332,87.6277515 C181.13706,93.248733 183.482237,99.1675148 185.49239,105.049072 C187.614217,111.079529 189.512694,115.769884 186.944166,122.135366 Z" id="Path" fill="#BA9755"></path>
                            <path d="M176.297804,127.979698 C172.612525,125.56007 170.416247,121.13029 169.857872,116.84941 C169.225046,111.935705 166.954318,107.431474 164.497465,103.076144 C163.492389,101.289342 162.524538,99.0186147 161.035536,97.604063 C159.50931,96.1522863 157.648058,95.1099851 156.866332,93.0626078 C155.82403,90.4196297 157.350257,87.1066009 159.95601,85.9898496 C162.561763,84.8730983 165.874792,85.9153995 167.512694,88.2233522 C168.44332,89.5262287 168.890021,91.1269055 169.299496,92.6903573 C171.570224,101.289342 173.840951,109.888327 176.111679,118.450087 C176.111679,119.976314 176.967855,121.502541 176.967855,123.065993 C176.967855,124.703894 176.521154,126.379021 176.297804,127.979698 Z" id="Path" fill="#B28B42"></path>
                            <path d="M155.340105,131.516077 C155.265655,130.697126 155.191205,129.878175 155.15398,129.059224 C154.818954,123.475468 155.935706,118.375637 157.945858,113.201356 C158.318108,112.19628 159.88156,110.409478 159.65821,109.404402 C161.445012,111.749579 163.827415,110.670053 164.31134,115.174283 C165.837567,112.19628 168.778345,110.148903 171.830799,108.734351 C174.883253,107.319799 178.159056,106.426398 181.21151,105.011847 C182.812187,104.267346 186.981392,102.406094 188.433168,101.438242 C185.194589,96.4128616 178.754657,84.5380729 177.600681,82.2301202 C175.516078,78.0981404 171.644674,74.9712368 167.289344,73.4822351 C165.316416,72.8121843 156.754657,73.5566852 153.851103,74.263961 C152.436552,77.5397648 150.835875,80.7783435 148.416247,83.3840966 C145.996619,85.9898496 142.60914,87.8511017 139.035536,87.7766516 C135.461932,87.7022016 131.888328,85.2825738 131.143827,81.8206448 C130.287651,77.9864653 133.005079,74.7106615 134.531306,71.0998323 C135.201357,69.5363805 135.648057,68.0846038 135.983082,66.4467019 C134.27073,66.7072772 132.409478,66.0372265 130.808801,65.4788508 C129.654825,65.1066004 128.463624,64.2876494 127.197972,64.3620995 C126.081221,64.4365496 125.225045,65.3671757 124.517769,66.2978018 C119.269038,73.1844348 115.062608,82.0812201 113.685282,90.64298 C113.164131,93.7326585 113.536381,96.9712373 112.978006,99.9864658 C110.967854,110.558378 105.272422,111.712354 97.4179378,118.934013 C97.2690376,119.082913 97.0829124,119.231813 96.9340123,119.380713 C101.624368,125.41117 106.426398,131.516077 112.680205,135.908632 C120.795265,141.641289 130.771576,143.986467 140.375638,146.406095 C142.795265,147.001695 147.969546,148.006771 149.793573,149.681898 C153.292728,152.920477 151.282575,158.988159 149.049073,162.822339 C152.138751,160.365486 153.664978,156.568531 154.037228,152.734352 C154.223354,150.79865 154.223354,148.639597 153.776653,146.74112 C153.590528,145.922169 151.952626,141.715739 152.548227,141.306264 C154.335029,140.077837 155.22843,137.844335 155.489005,135.648057 C155.489005,134.233505 155.414555,132.893404 155.340105,131.516077 Z" id="Path" fill="#02548C"></path>
                            <path d="M155.340105,129.654825 C155.265655,128.835874 155.191205,128.016923 155.15398,127.197972 C154.818954,121.614216 155.935706,116.514385 157.945858,111.340104 C158.318108,110.335028 159.88156,108.548226 159.65821,107.54315 C161.445012,109.888327 163.827415,108.808801 164.31134,113.313031 C164.571916,112.829106 168.406095,107.505924 168.927246,108.0643 C166.693743,105.681897 163.604064,104.453471 160.737736,103.038919 C157.759733,101.587143 156.345181,98.8697145 155.489005,95.7055858 C154.446704,102.294418 153.106602,108.994926 149.830799,114.802033 C144.507617,124.219969 134.382406,128.835874 123.773268,127.123522 C117.072761,126.043996 110.856178,122.879867 105.495772,118.710662 C104.751271,118.115062 103.746195,117.482236 102.927244,117.966162 C105.384097,125.225045 108.771576,131.962778 115.620984,135.945857 C123.214893,140.375638 131.925553,142.423015 140.338413,144.507617 C142.75804,145.103218 145.252118,145.773269 147.076145,147.485621 C150.575299,150.7242 153.106602,156.010156 147.522846,161.966163 C151.24535,160.849411 153.627753,154.707279 154.000003,150.8731 C154.186129,148.937397 154.186129,146.778345 153.739428,144.879868 C153.553303,144.060917 151.915401,139.854487 152.511002,139.445011 C154.297804,138.216585 155.191205,135.983082 155.45178,133.786805 C155.489005,132.372253 155.414555,131.032152 155.340105,129.654825 Z" id="Path" fill="#02548C"></path>
                            <path d="M135.648057,66.483927 C130.175976,66.3350268 128.835874,63.1708982 123.401018,62.5752975 C119.343488,62.1285969 113.834182,64.2876494 110.446703,66.5956021 C107.059224,68.9035548 103.70897,71.5093078 99.7258905,72.1793586 C102.331644,73.7428104 103.969545,76.4230135 105.532997,79.0287665 C108.883251,84.612523 112.307955,90.6057549 112.12183,97.1201375 C112.084605,98.1252136 111.712354,99.3908651 110.707278,99.4280901 C112.56853,99.4280901 114.094757,98.0879886 115.472084,96.8223371 C119.529613,93.0253827 127.309647,75.0456869 131.367177,71.2487325 L135.648057,66.483927 Z" id="Path" fill="#02548C"></path>
                            <path d="M123.326568,52.710661 C117.928937,55.8003396 111.302879,55.9864648 105.607447,58.5549928 C101.326567,60.4906951 97.6412881,63.8037239 95.2961104,67.8612536 C95.1099851,68.196279 94.8866349,68.5685294 94.961085,68.9780049 C94.99831,69.3874804 95.4077855,69.7225057 95.7800359,69.5736056 C97.7901882,64.8088001 102.443319,61.5702213 107.282574,59.7089691 C112.12183,57.847717 117.333336,57.1776662 122.358717,55.9120147" id="Path" fill="#306BC4"></path>
                            <path d="M174.697127,41.6548232 C175.441628,42.1387488 176.148904,42.6971244 176.670055,43.4044003 C177.191205,44.1116761 177.526231,44.9678521 177.712356,45.8240281 C177.824031,46.3451787 177.898481,46.8663293 177.898481,47.3874799 C177.935706,48.355331 176.521154,48.5414562 176.297804,47.6108301 C175.181053,42.9576997 170.862948,40.612522 166.433168,39.8680212 C163.71574,39.3840956 160.961086,39.4213207 158.206433,39.2351954 C156.196281,39.1235203 154.074453,38.82572 152.511002,37.5600685 C150.910325,36.257192 150.165824,34.1353645 150.091374,32.0507621 C150.016924,30.0033847 150.538074,27.9560074 151.059225,25.945855 C151.4687,24.3451782 151.989851,22.7817264 151.989851,21.1438245 C152.771577,27.7698822 157.424707,33.8003391 163.64129,36.1827419 C165.614217,36.9644678 172.984775,40.5380719 174.697127,41.6548232 Z" id="Path" fill="#306BC4"></path>
                            <path d="M146.182744,38.0812191 C145.549919,45.749578 141.901864,53.1201365 136.243658,58.2944175 C136.467008,57.9593921 142.981391,55.4280892 143.241966,55.7258895 C148.118447,61.4213211 147.969546,69.945856 145.363793,85.6548242 C149.681898,83.2351964 151.692051,78.3214907 153.739428,74.1522859 C151.3198,61.6818964 149.830799,55.9864648 147.560071,44.6328267" id="Path" fill="#B28B42"></path>
                            <path d="M111.414554,29.5566842 C112.456855,31.939087 114.429783,34.1353645 116.961085,34.6565151 C119.194588,35.1404407 121.502541,34.3214897 123.698818,33.7258891 C125.895096,33.1302884 128.426399,32.7580379 130.362101,34.0236894 C132.521153,35.438241 133.079529,38.2673443 133.89848,40.6869721 C133.97293,40.9475474 134.084605,41.2081227 134.307956,41.3570229 C135.015231,41.8037234 135.610832,40.6869721 136.206433,40.0541464 C137.099834,39.0490702 138.849411,39.3096455 139.817262,40.2402716 C140.785113,41.1708977 141.194589,42.5482243 141.492389,43.8511008 C142.944166,50.1421331 143.539766,56.6192906 145.773269,62.7241976 C146.66667,65.1438254 147.746196,67.5634532 149.421323,69.5363805 C151.09645,71.5093078 153.292728,73.1472097 155.82403,73.6311353 C158.355333,74.1150608 161.221662,73.407785 162.896789,71.4348577 C163.827415,70.3925565 164.348565,69.052455 165.316416,68.0101538 C165.912017,67.377328 166.656518,66.8561774 167.214894,66.1861266 C169.113371,63.8037239 166.060917,61.272421 164.423015,59.7834192 C162.003388,57.5499166 160.328261,54.6091382 158.839259,51.7055849 C155.563455,45.4145526 152.771577,38.82572 150.538074,32.0879872 C148.639597,26.4297806 146.81557,20.2131984 141.901864,16.7884944 C136.839258,13.2893404 129.69205,13.9966162 124.592219,17.4213202 C118.971238,21.1810495 115.137058,27.9187823 108.548226,29.5939093" id="Path" fill="#306BC4"></path>
                            <path d="M43.4788504,41.9526236 C43.18105,41.5431481 43.4788504,41.0219975 43.9627759,41.0219975 C48.392556,41.1336726 54.2368878,41.1336726 58.1082923,41.9153985 C58.4433177,41.9898486 58.741118,42.0270737 59.0389184,42.1759738 C59.2622686,42.287649 62.0913719,46.1962785 61.7935716,46.1590535 C59.8950944,45.8984782 46.605754,43.1065999 44.4467015,42.6971244 C44.1116761,42.6226744 43.8138757,42.4365491 43.6277505,42.1759738 L43.4788504,41.9526236 Z" id="Path" fill="#BA9755"></path>
                            <path d="M144.656518,41.7292733 C144.470392,42.1015238 144.507617,42.5109992 144.544842,42.9204747 C145.065993,47.2385797 145.587144,51.5939097 146.182744,55.8747897 C146.89002,61.0862957 151.840951,71.658208 158.429783,70.6903569 C160.365486,70.3925565 162.115063,69.2758052 164.08799,69.1641301 C166.023692,69.052455 167.847719,69.908631 169.485621,70.9509322 C172.94755,73.1844348 175.813879,76.3485634 177.675131,79.9966176 C178.494082,78.8798663 178.829107,77.5397648 179.015232,76.1624382 C180.020308,69.6108306 177.861256,62.6869726 173.357026,57.847717 C172.94755,57.4382415 172.538075,57.028766 172.314725,56.4703904 C171.644674,54.9069386 172.910325,53.1945866 173.09645,51.4822346 C173.319801,49.7326576 172.35195,48.0203056 170.974623,46.9035543 C169.634521,45.786803 167.922169,45.1912023 166.247043,44.6700517 C166.284268,45.3773275 167.028768,45.749578 167.587144,46.1962785 C169.485621,47.7225053 168.964471,51.2588844 166.693743,52.1895104 C166.209817,52.3756357 165.651442,52.4873108 165.204741,52.7478861 C164.683591,53.0456864 164.348565,53.566837 164.01354,54.0507626 C162.077838,56.8054158 159.062609,59.5228439 155.786805,58.8155681 C152.734352,58.1455173 151.09645,54.8697135 149.942474,51.9289351 C148.527922,48.4297811 147.11337,44.893402 145.698819,41.3942479 C145.401018,41.1708977 144.879868,41.3570229 144.656518,41.7292733 Z" id="Path" fill="#1A65B0"></path>
                            <path d="M136.206433,40.6869721 C136.690358,40.1658215 137.025384,39.4957707 137.472084,38.9373951 C137.918785,38.3790194 138.47716,37.8578688 139.221661,37.7461937 C140.338413,37.5972935 141.269039,38.5651447 141.790189,39.5702208 C142.53469,41.0592225 142.68359,42.7715745 142.31134,44.3722514 C142.08799,45.3028775 141.678514,46.2707286 140.896788,46.8663293 C140.115062,47.46193 138.961086,47.6108301 138.17936,47.0152294 C138.142135,46.8663293 138.142135,46.7174291 138.10491,46.5685289" id="Path" fill="#BA9755"></path>
                            <path d="M103.746195,35.0659906 C106.612523,36.7411175 110.223353,35.9966167 113.424706,36.8900177 C113.610832,38.7140448 113.796957,40.612522 114.690358,42.2131989 C115.583759,43.8138757 117.370561,45.0795272 119.157363,44.7445018 C118.561762,41.6175982 118.152287,38.4162445 118.003387,35.2521158 C117.407786,35.1776657 116.77496,35.0659906 116.17936,34.9915405 C114.057532,34.6937402 111.89848,34.3959398 109.962777,33.4280887 C107.282574,32.0879872 105.272422,29.4077841 104.714046,26.4670056 C104.155671,23.5262272 105.049072,20.3248735 107.059224,18.0541459 C106.761424,18.3891713 105.160747,18.6125216 104.676821,18.8730969 C103.85787,19.3197974 103.076144,19.9526231 102.480544,20.697124 C101.363792,22.0744506 100.879867,23.7868025 100.544841,25.4619295 C99.8003406,28.9610835 100.395941,33.1302884 103.746195,35.0659906 Z" id="Path" fill="#1A65B0"></path>
                            <polygon id="Path" fill="#306BC4" points="75.976313 48.5042312 44.000001 41.9898486 41.2825728 42.5482243 43.5905255 44.1116761 75.5668375 50.6260586"></polygon>
                            <path d="M55.6514394,57.4754666 C53.1573616,56.4331654 52.0406103,53.6412871 51.81726,53.0456864 C51.1844343,51.3705595 51.4450096,48.5786813 51.2588844,48.392556 C51.1844343,48.318106 50.1421331,48.0203056 49.7698826,47.8341804 C48.9509317,47.46193 48.392556,46.605754 48.392556,45.7123529 C48.392556,45.4145526 48.4670061,45.0423022 48.7648065,44.9678521 C48.8020315,44.9678521 51.2216593,46.0101533 51.5939097,46.2335035 C52.0406103,46.4940788 55.279189,49.0626068 55.5769894,49.6582075 C55.9864648,50.4399334 56.135365,51.3333344 56.0609149,52.1895104" id="Path" fill="#BA9755"></path>
                            <path d="M205.668363,60.1184446 C207.827416,60.7884954 210.135368,59.8206443 211.214895,57.847717 C213.746198,53.1201365 217.989852,44.000001 219.218279,34.3214897 C220.223355,26.6159058 219.739429,20.5854488 219.255504,17.235195 C218.994929,15.4856179 217.803727,13.9966162 216.091375,13.4382406 C208.274116,10.7580375 199.414556,8.97123539 192.118447,7.89170914 C189.401019,7.48223366 186.944166,9.49238599 186.720816,12.2098141 C186.311341,17.6818955 185.64129,26.1692053 185.26904,29.8544846 C184.338413,38.6023697 181.918786,47.8341804 180.802034,51.8917101 C180.504234,53.0084614 181.21151,54.1996628 182.365486,54.423013 C192.862948,56.6192906 197.888329,57.7360419 205.668363,60.1184446 Z" id="Path" fill="#FFD85F"></path>
                            <path d="M204.365487,60.1928947 C204.179361,58.703893 203.918786,57.2521163 203.546536,55.8375647 C203.28596,54.8324885 202.950935,53.7529622 202.206434,53.0084614 C201.610833,52.4128607 200.829108,52.1150604 200.084607,51.7055849 C198.074454,50.6632837 196.362102,49.0998319 194.4264,47.9086305 C194.314725,47.8341804 194.20305,47.7969554 194.091375,47.7969554 C193.942475,47.8341804 193.868025,47.9458555 193.793574,48.0947557 C193.458549,48.8764816 194.1286,49.7326576 194.7242,50.3282583 C195.729277,51.3333344 196.734353,52.3756357 197.739429,53.3807118 C196.994928,53.6785122 196.324877,54.1252127 195.692052,54.6091382 C195.505926,54.0879876 194.873101,53.9018624 194.35195,54.0135375 C193.830799,54.1624377 193.421324,54.5719132 193.123524,54.9813887 C192.862948,54.5346882 192.527923,54.0507626 192.043997,54.0135375 C191.336722,53.9390875 190.852796,54.7580384 190.592221,55.4280892 C190.29442,56.17259 190.033845,56.9170909 189.959395,57.7360419 C189.884945,58.5549928 190.108295,59.3739438 190.666671,59.9323194 C189.62437,60.9373956 188.768194,62.1285969 188.172593,63.4686985 C187.800342,64.2504244 187.539767,65.1066004 187.576992,65.9627764 C187.614217,66.7072772 187.874793,67.4145531 188.098143,68.1218289 C188.358718,69.0152299 188.470393,69.908631 188.507618,70.839257 C188.358718,71.1742824 186.311341,83.4213216 179.089682,99.9864658 C175.478853,108.250425 172.016924,114.057532 173.133675,122.991542 C174.064302,130.213201 181.807111,128.426399 181.807111,128.426399 C184.896789,126.490696 187.912018,123.177668 189.177669,119.752964 C190.443321,116.32826 190.964471,111.89848 190.964471,108.250425 C190.964471,98.9069395 194.4264,71.3231826 195.059226,70.1692063 C195.654827,69.052455 196.734353,68.2707291 197.739429,67.5262282 C199.600681,66.1489016 201.387483,64.6598999 203.13706,63.1708982 C203.546536,62.7986477 203.993236,62.4263973 204.216586,61.9052467 C204.514387,61.346871 204.439937,60.7512704 204.365487,60.1928947 Z" id="Path" fill="#BA9755"></path>
                            <path d="M218.771578,129.84095 L218.473778,130.436551 C218.548228,130.250426 218.659903,130.064301 218.771578,129.84095" id="Path" fill="#FFFFFF"></path>
                            <path d="M114.169207,93.3231831 C113.610832,94.8494098 113.015231,96.5245368 111.600679,97.3807128 C112.456855,92.429782 110.930628,86.2131998 108.324875,81.8950948 C108.2132,81.7089696 110.558378,79.5871422 110.781728,79.4010169 C112.19628,78.0981404 113.685282,77.0186142 115.285959,75.976313 C117.147211,74.7851116 119.008463,73.5566852 121.093065,72.8121843 C122.395942,72.3282588 123.736043,72.0304584 125.076145,71.7698831 C126.081221,71.5465329 127.049072,71.3231826 128.054148,71.1370574 C127.868023,71.1742824 126.937397,73.407785 126.751272,73.7055854 C126.192896,74.5989864 125.56007,75.4551624 124.89002,76.2741133 C123.549918,77.9492403 122.135366,79.5126921 120.98139,81.3367192 C118.487312,85.2081237 115.807109,88.930628 114.169207,93.3231831 Z" id="Path" fill="#02548C"></path>
                            <path d="M135.350257,134.084605 L123.401018,164.125215 C122.284267,166.917093 123.884943,170.006772 126.788497,170.751273 C136.950934,173.357026 146.51777,175.404403 155.22843,176.93063 C157.536382,177.340105 159.80711,176.074454 160.700511,173.878176 L172.5753,144.023692 C173.729276,141.120138 171.942474,137.88156 168.890021,137.323184 C160.365486,135.722507 151.09645,133.637905 141.231814,131.069377 C138.812186,130.511001 136.280883,131.776653 135.350257,134.084605 Z" id="Path" fill="#14D997"></path>
                            <path d="M178.754657,143.874792 L168.66667,169.187821 C167.624369,171.793574 169.373946,174.659902 172.165824,174.957703 C182.142136,176.000004 190.108295,175.888329 195.394251,174.511002 C196.659903,174.175977 197.702204,173.208126 198.18613,171.979699 L207.752966,147.932321 C208.906942,144.991543 206.598989,141.901864 203.472086,142.125215 C198.074454,142.53469 191.225046,142.199665 183.221662,141.194589 C181.323185,141.008463 179.461933,142.08799 178.754657,143.874792 Z" id="Path" fill="#14D997"></path>
                            <path d="M81.187819,110.967854 L68.3451791,143.316416 C67.3028779,145.922169 68.4940793,148.937397 71.0626073,150.091374 C82.8257209,155.414555 95.4450105,160.700511 108.734351,165.763117 C111.451779,166.805418 114.467008,165.465317 115.546534,162.785114 L128.389174,130.511001 C129.4687,127.756348 128.128598,124.666669 125.373945,123.624368 C112.307955,118.598987 99.9120157,113.387481 88.3350273,108.13875 C85.5431491,106.873099 82.3045703,108.175975 81.187819,110.967854 Z" id="Path" fill="#FFD85F"></path>
                            <path d="M13.1404402,69.1641301 L0.744500862,93.6582085 C0.0372250431,95.0355351 0.148900172,96.710662 1.04230121,98.0135385 C4.28087996,102.554994 9.64128616,107.878175 16.7884944,113.685282 C18.8730969,115.397634 22.0000005,114.690358 23.2284269,112.307955 L35.8104915,87.4044012 C36.7038925,85.6175991 36.2199669,83.4585466 34.6937402,82.1928952 C28.477158,77.2047394 23.5634523,72.551609 20.1759734,68.4196292 C18.2774962,66.0372265 14.5177668,66.4467019 13.1404402,69.1641301 Z" id="Path" fill="#14D997"></path>
                            <path d="M41.2081227,90.3824047 L28.5888331,120.497465 C27.658207,122.768192 28.477158,125.373945 30.5617604,126.639597 C38.0812191,131.218277 46.5685289,135.945857 55.8003396,140.673438 C58.3688676,141.976314 61.5329963,140.859563 62.6497476,138.17936 L75.2690372,108.0643 C76.2741133,105.681897 75.2690372,102.927244 72.9610845,101.736043 C63.9526241,97.1201375 55.7258895,92.5042321 48.355331,88.037227 C45.749578,86.4737751 42.3620991,87.5905264 41.2081227,90.3824047 Z" id="Path" fill="#4E97EE"></path>
                        </g>
                    </g>
                </g>
            </g>
        </g>
    </g>
</svg>