<?xml version="1.0" encoding="UTF-8"?>
<svg width="559px" height="404px" viewBox="0 0 559 404" version="1.1" xmlns="http://www.w3.org/2000/svg" xmlns:xlink="http://www.w3.org/1999/xlink">
    <!-- Generator: Sketch 52.3 (67297) - http://www.bohemiancoding.com/sketch -->
    <title>IC-1H Developer</title>
    <desc>Created with Sketch.</desc>
    <defs>
        <path d="M123.335617,7.6796506 C48.4089129,30.5433735 0.146143791,99.310988 0,173.704181 L0,174.362506 C0.0304466231,191.093217 2.49540523,208.100157 7.63966667,224.930651 C26.498305,286.634349 76.5696035,330.238361 135.278,343.744373 L133.727658,344.492747 C133.727658,344.492747 229.512734,362.052145 309.707922,397.273157 L308.717797,395.902964 C334.055477,404.78853 362.341608,405.990795 389.994449,397.553036 C438.305932,382.811904 471.800871,342.612687 480.327144,296.173373 C501.755477,224.535169 543.011869,166.291024 543.011869,166.291024 L542.792654,166.069554 C557.63112,144.891193 562.932486,117.364434 554.789841,90.7223373 C540.744205,44.7649036 492.069797,18.887 446.075911,32.9235663 C436.792126,35.7552169 428.346233,40.0166867 420.864889,45.3611687 C363.45839,72.0604578 277.510009,31.5448554 260.321063,22.8649398 C234.425601,8.14936145 204.803473,0.0498915663 174.250895,0.0486746988 C157.405388,0.0474578313 140.283425,2.50796386 123.335617,7.6796506" id="path-1"></path>
        <linearGradient x1="29.153267%" y1="90.5548616%" x2="67.1723603%" y2="-8.34796453%" id="linearGradient-3">
            <stop stop-color="#CFEDF9" offset="0%"></stop>
            <stop stop-color="#F2F9FD" offset="100%"></stop>
        </linearGradient>
        <polygon id="path-4" points="0 468.813073 558.605412 468.813073 558.605412 0.0487078517 0 0.0487078517"></polygon>
        <path d="M134.021371,11.6705478 L135.086056,16.0107037 C118.975846,7.45189691 99.1848671,3.4628903 81.6023497,8.95855795 C66.5543916,13.6632286 55.1494825,24.4334249 43.1641678,33.7893039 C31.1776364,43.146398 16.5519021,51.785398 0.653412587,50.6165207 C6.1265035,57.3418181 14.8155524,61.8375003 24.0314685,63.0574097 C19.2799301,63.2275166 14.5502937,63.8994388 9.97883916,65.0683162 C13.8907972,68.9017965 19.442979,71.3379702 25.2202657,71.9163336 C22.4119301,72.2735581 19.6875524,73.1666193 17.3184755,74.5542055 C15.6892028,75.5080191 57.6134685,82.6014765 57.2326154,84.2041264 C53.755049,98.8430395 57.1389231,110.786973 59.2220559,120.627657 C61.669007,115.542676 64.115958,110.45648 66.5641259,105.371499 C66.8537203,109.124786 67.1445315,112.879288 67.4353427,116.63379 C71.3168811,112.943686 75.195986,109.254796 79.0775245,105.567122 C76.0173147,117.008025 85.2003776,129.027292 88.1328252,140.496142 C91.0652727,151.964992 96.963021,157.987991 109.284168,162.277114 C123.638559,166.125175 132.933566,148.393962 132.933566,148.393962 C131.870098,152.533635 138.770476,155.274786 142.899021,153.138729 C147.027566,151.003888 148.634937,146.509421 149.910126,142.417135 C153.300084,131.513283 156.692476,120.609431 160.08365,109.706795 C160.178559,110.850156 160.235748,111.998377 160.205329,113.146599 C170.38372,99.8041435 174.962476,82.3305205 172.632336,65.7171525 C170.303413,49.1037844 161.094797,33.5584446 147.635958,23.5197079 C154.428042,21.9073376 161.220126,20.2937522 168.014643,18.6813819 C159.272056,13.2416065 147.583636,13.0557039 138.569706,17.9645028 C138.241175,17.7700949 137.912643,17.5817623 137.581678,17.3909996 C140.619986,12.4129429 141.577594,6.17852532 140.07,0.538266807 C138.055007,4.24902714 136.038797,7.95978748 134.021371,11.6705478 Z" id="path-6"></path>
        <path d="M123.335617,7.6796506 C48.4089129,30.5433735 0.146143791,99.310988 0,173.704181 L0,174.362506 C0.0304466231,191.093217 2.49540523,208.100157 7.63966667,224.930651 C26.498305,286.634349 76.5696035,330.238361 135.278,343.744373 L133.727658,344.492747 C133.727658,344.492747 229.512734,362.052145 309.707922,397.273157 L308.717797,395.902964 C334.055477,404.78853 362.341608,405.990795 389.994449,397.553036 C438.305932,382.811904 471.800871,342.612687 480.327144,296.173373 C501.755477,224.536386 543.011869,166.291024 543.011869,166.291024 L542.792654,166.069554 C557.63112,144.891193 562.932486,117.364434 554.789841,90.7223373 C540.744205,44.7649036 492.069797,18.887 446.075911,32.9235663 C436.792126,35.7552169 428.346233,40.0166867 420.864889,45.3611687 C363.45839,72.0604578 277.510009,31.5448554 260.321063,22.8649398 C234.425601,8.14936145 204.803473,0.0498915663 174.250895,0.0486746988 C157.405388,0.0474578313 140.283425,2.50796386 123.335617,7.6796506 Z" id="path-8"></path>
        <path d="M123.335617,7.6796506 C48.4089129,30.5433735 0.146143791,99.310988 0,173.704181 L0,174.362506 C0.0304466231,191.093217 2.49540523,208.100157 7.63966667,224.930651 C26.498305,286.634349 76.5696035,330.238361 135.278,343.744373 L133.727658,344.492747 C133.727658,344.492747 229.512734,362.052145 309.707922,397.273157 L308.717797,395.902964 C334.055477,404.78853 362.341608,405.990795 389.994449,397.553036 C438.305932,382.811904 471.800871,342.612687 480.327144,296.173373 C501.755477,224.536386 543.011869,166.291024 543.011869,166.291024 L542.792654,166.069554 C557.63112,144.891193 562.932486,117.364434 554.789841,90.7223373 C540.744205,44.7649036 492.069797,18.887 446.075911,32.9235663 C436.792126,35.7552169 428.346233,40.0166867 420.864889,45.3611687 C363.45839,72.0604578 277.510009,31.5448554 260.321063,22.8649398 C234.425601,8.14936145 204.803473,0.0498915663 174.250895,0.0486746988 C157.405388,0.0474578313 140.283425,2.50796386 123.335617,7.6796506 Z" id="path-10"></path>
        <path d="M123.335617,7.6796506 C48.4089129,30.5433735 0.146143791,99.310988 0,173.704181 L0,174.362506 C0.0304466231,191.093217 2.49540523,208.100157 7.63966667,224.930651 C26.498305,286.634349 76.5696035,330.238361 135.278,343.744373 L133.727658,344.492747 C133.727658,344.492747 229.512734,362.052145 309.707922,397.273157 L308.717797,395.902964 C334.055477,404.78853 362.341608,405.990795 389.994449,397.553036 C438.305932,382.811904 471.800871,342.612687 480.327144,296.173373 C501.755477,224.536386 543.011869,166.291024 543.011869,166.291024 L542.792654,166.069554 C557.63112,144.891193 562.932486,117.364434 554.789841,90.7223373 C540.744205,44.7649036 492.069797,18.887 446.075911,32.9235663 C436.792126,35.7552169 428.346233,40.0166867 420.864889,45.3611687 C363.45839,72.0604578 277.510009,31.5448554 260.321063,22.8649398 C234.425601,8.14936145 204.803473,0.0498915663 174.250895,0.0486746988 C157.405388,0.0474578313 140.283425,2.50796386 123.335617,7.6796506" id="path-12"></path>
        <path d="M123.335617,7.6796506 C48.4089129,30.5433735 0.146143791,99.310988 0,173.704181 L0,174.362506 C0.0304466231,191.093217 2.49540523,208.100157 7.63966667,224.930651 C26.498305,286.634349 76.5696035,330.238361 135.278,343.744373 L133.727658,344.492747 C133.727658,344.492747 229.512734,362.052145 309.707922,397.273157 L308.717797,395.902964 C334.055477,404.78853 362.341608,405.990795 389.994449,397.553036 C438.305932,382.811904 471.800871,342.612687 480.327144,296.173373 C501.755477,224.536386 543.011869,166.291024 543.011869,166.291024 L542.792654,166.069554 C557.63112,144.891193 562.932486,117.364434 554.789841,90.7223373 C540.744205,44.7649036 492.069797,18.887 446.075911,32.9235663 C436.792126,35.7552169 428.346233,40.0166867 420.864889,45.3611687 C363.45839,72.0604578 277.510009,31.5448554 260.321063,22.8649398 C234.425601,8.14936145 204.803473,0.0498915663 174.250895,0.0486746988 C157.405388,0.0474578313 140.283425,2.50796386 123.335617,7.6796506" id="path-14"></path>
        <path d="M123.335617,7.6796506 C48.4089129,30.5433735 0.146143791,99.310988 0,173.704181 L0,174.362506 C0.0304466231,191.093217 2.49540523,208.100157 7.63966667,224.930651 C26.498305,286.634349 76.5696035,330.238361 135.278,343.744373 L133.727658,344.492747 C133.727658,344.492747 229.512734,362.052145 309.707922,397.273157 L308.717797,395.902964 C334.055477,404.78853 362.341608,405.990795 389.994449,397.553036 C438.305932,382.811904 471.800871,342.612687 480.327144,296.173373 C501.755477,224.536386 543.011869,166.291024 543.011869,166.291024 L542.792654,166.069554 C557.63112,144.891193 562.932486,117.364434 554.789841,90.7223373 C540.744205,44.7649036 492.069797,18.887 446.075911,32.9235663 C436.792126,35.7552169 428.346233,40.0166867 420.864889,45.3611687 C363.45839,72.0604578 277.510009,31.5448554 260.321063,22.8649398 C234.425601,8.14936145 204.803473,0.0498915663 174.250895,0.0486746988 C157.405388,0.0474578313 140.283425,2.50796386 123.335617,7.6796506" id="path-16"></path>
        <path d="M0,173.704181 L0,174.362506 C0.0304466231,191.093217 2.49540523,208.100157 7.63966667,224.930651 C26.498305,286.634349 76.5696035,330.238361 135.278,343.744373 L133.727658,344.492747 C133.727658,344.492747 229.512734,362.052145 309.707922,397.273157 L308.717797,395.902964 C334.055477,404.78853 362.341608,405.990795 389.994449,397.553036 C438.305932,382.811904 471.800871,342.612687 480.327144,296.173373 C501.755477,224.536386 543.011869,166.291024 543.011869,166.291024 L542.792654,166.069554 C557.63112,144.891193 562.932486,117.364434 554.789841,90.7223373 C540.744205,44.7649036 492.069797,18.887 446.075911,32.9235663 C436.792126,35.7552169 428.346233,40.0166867 420.864889,45.3611687 C363.45839,72.0604578 277.510009,31.5448554 260.321063,22.8649398 C234.425601,8.14936145 204.803473,0.0498915663 174.250895,0.0486746988 C157.405388,0.0474578313 140.283425,2.50796386 123.335617,7.6796506 C48.4089129,30.5433735 0.146143791,99.310988 0,173.704181 Z" id="path-18"></path>
    </defs>
    <g id="Content-Infrastructure-(AT)" stroke="none" stroke-width="1" fill="none" fill-rule="evenodd">
        <g id="Content-Infrastructure" transform="translate(-165.000000, -3362.000000)">
            <g id="IC-1H-Developer" transform="translate(165.000000, 3362.000000)">
                <g id="Group-3">
                    <mask id="mask-2" fill="white">
                        <use xlink:href="#path-1"></use>
                    </mask>
                    <g id="Clip-2"></g>
                    <path d="M123.335617,7.6796506 C48.4089129,30.5433735 0.146143791,99.310988 0,173.704181 L0,174.362506 C0.0304466231,191.093217 2.49540523,208.100157 7.63966667,224.930651 C26.498305,286.634349 76.5696035,330.238361 135.278,343.744373 L133.727658,344.492747 C133.727658,344.492747 229.512734,362.052145 309.707922,397.273157 L308.717797,395.902964 C334.055477,404.78853 362.341608,405.990795 389.994449,397.553036 C438.305932,382.811904 471.800871,342.612687 480.327144,296.173373 C501.755477,224.535169 543.011869,166.291024 543.011869,166.291024 L542.792654,166.069554 C557.63112,144.891193 562.932486,117.364434 554.789841,90.7223373 C540.744205,44.7649036 492.069797,18.887 446.075911,32.9235663 C436.792126,35.7552169 428.346233,40.0166867 420.864889,45.3611687 C363.45839,72.0604578 277.510009,31.5448554 260.321063,22.8649398 C234.425601,8.14936145 204.803473,0.0498915663 174.250895,0.0486746988 C157.405388,0.0474578313 140.283425,2.50796386 123.335617,7.6796506" id="Fill-1" fill="url(#linearGradient-3)" mask="url(#mask-2)"></path>
                </g>
                <polygon id="Fill-4" fill="#CCD3DB" points="262 301 183 301 187.519395 267 258.125364 267"></polygon>
                <g id="Group-42">
                    <path d="M65.9538403,238.600283 L65.9538403,259.610414 C65.9538403,263.874787 69.4442412,267.364704 73.7128577,267.364704 L370.120476,267.364704 C374.384222,267.364704 377.87584,263.874787 377.87584,259.610414 L377.87584,238.600283 L65.9538403,238.600283 Z" id="Fill-5" fill="#F7F9FA"></path>
                    <path d="M377.875353,60.1999823 C377.875353,55.9343922 374.384952,52.4444746 370.121207,52.4444746 L73.7123706,52.4444746 C69.443754,52.4444746 65.9533532,55.9343922 65.9533532,60.1999823 L65.9533532,238.599795 L377.875353,238.599795 L377.875353,60.1999823 Z" id="Fill-7" fill="#2E5078"></path>
                    <mask id="mask-5" fill="white">
                        <use xlink:href="#path-4"></use>
                    </mask>
                    <g id="Clip-10"></g>
                    <polygon id="Fill-9" fill="#2E89C4" mask="url(#mask-5)" points="76.9422702 228.259606 366.88668 228.259606 366.88668 62.7856386 76.9422702 62.7856386"></polygon>
                    <polygon id="Fill-11" fill="#D0D5DD" mask="url(#mask-5)" points="182.372349 301.120098 261.45928 301.120098 275.368515 304.40666 168.460678 304.485811"></polygon>
                    <polygon id="Fill-12" fill="#F7F9FA" mask="url(#mask-5)" points="274.641084 306.233448 167.969514 306.233448 168.487106 303.26714 275.369368 303.189208"></polygon>
                    <path d="M227.463676,253.898688 C227.463676,256.962412 224.979232,259.446512 221.915084,259.446512 C218.847282,259.446512 216.365273,256.962412 216.365273,253.898688 C216.365273,250.832529 218.847282,248.348428 221.915084,248.348428 C224.979232,248.348428 227.463676,250.832529 227.463676,253.898688" id="Fill-13" fill="#CCD3DB" mask="url(#mask-5)"></path>
                    <path d="M107.45344,99.0586193 L131.643891,99.0586193" id="Stroke-14" stroke="#72E8C1" stroke-width="4" mask="url(#mask-5)"></path>
                    <path d="M182.908697,99.0586193 L207.099148,99.0586193" id="Stroke-15" stroke="#9DC5F5" stroke-width="4" mask="url(#mask-5)"></path>
                    <path d="M212.24682,99.0586193 L236.437271,99.0586193" id="Stroke-16" stroke="#72E8C1" stroke-width="4" mask="url(#mask-5)"></path>
                    <path d="M136.152914,99.0586193 L177.701594,99.0586193" id="Stroke-17" stroke="#FFD840" stroke-width="4" mask="url(#mask-5)"></path>
                    <path d="M107.45344,135.635293 L149.000902,135.635293" id="Stroke-18" stroke="#FFD840" stroke-width="4" mask="url(#mask-5)"></path>
                    <path d="M182.908697,135.635293 L224.456159,135.635293" id="Stroke-19" stroke="#72E8C1" stroke-width="4" mask="url(#mask-5)"></path>
                    <path d="M153.511021,135.635293 L177.701472,135.635293" id="Stroke-20" stroke="#9DC5F5" stroke-width="4" mask="url(#mask-5)"></path>
                    <path d="M107.45344,124.599921 L131.643891,124.599921" id="Stroke-21" stroke="#9DC5F5" stroke-width="4" mask="url(#mask-5)"></path>
                    <path d="M182.908697,124.599921 L207.099148,124.599921" id="Stroke-22" stroke="#9DC5F5" stroke-width="4" mask="url(#mask-5)"></path>
                    <path d="M136.152914,124.599921 L177.701594,124.599921" id="Stroke-23" stroke="#72E8C1" stroke-width="4" mask="url(#mask-5)"></path>
                    <path d="M165.111672,112.457419 L212.306373,112.457419" id="Stroke-24" stroke="#9DC5F5" stroke-width="4" mask="url(#mask-5)"></path>
                    <path d="M217.453679,112.457419 L253.619396,112.457419" id="Stroke-25" stroke="#FFD840" stroke-width="4" mask="url(#mask-5)"></path>
                    <path d="M107.45344,112.457419 L160.3989,112.457419" id="Stroke-26" stroke="#9DC5F5" stroke-width="4" mask="url(#mask-5)"></path>
                    <path d="M107.45344,167.061721 L131.643891,167.061721" id="Stroke-27" stroke="#9DC5F5" stroke-width="4" mask="url(#mask-5)"></path>
                    <path d="M182.908697,167.061721 L207.099148,167.061721" id="Stroke-28" stroke="#9DC5F5" stroke-width="4" mask="url(#mask-5)"></path>
                    <path d="M212.24682,167.061721 L257.290772,167.061721" id="Stroke-29" stroke="#9DC5F5" stroke-width="4" mask="url(#mask-5)"></path>
                    <path d="M136.152914,167.061721 L177.701594,167.061721" id="Stroke-30" stroke="#72E8C1" stroke-width="4" mask="url(#mask-5)"></path>
                    <path d="M107.45344,192.603023 L131.643891,192.603023" id="Stroke-31" stroke="#FFD840" stroke-width="4" mask="url(#mask-5)"></path>
                    <path d="M182.908697,192.603023 L220.432333,192.603023" id="Stroke-32" stroke="#72E8C1" stroke-width="4" mask="url(#mask-5)"></path>
                    <path d="M136.152914,192.603023 L177.701594,192.603023" id="Stroke-33" stroke="#9DC5F5" stroke-width="4" mask="url(#mask-5)"></path>
                    <path d="M165.111672,180.460521 L212.306373,180.460521" id="Stroke-34" stroke="#FFD840" stroke-width="4" mask="url(#mask-5)"></path>
                    <path d="M107.45344,180.460521 L160.3989,180.460521" id="Stroke-35" stroke="#9DC5F5" stroke-width="4" mask="url(#mask-5)"></path>
                    <path d="M320.953199,95.4947876 C316.251023,103.35867 312.417184,111.742509 309.546676,120.444167 C308.657635,123.135276 307.930569,126.324422 309.605134,128.611256 C310.896071,130.375698 313.20636,130.994288 315.335188,131.495978 C319.095955,132.383679 322.856722,133.27138 326.617489,134.15908" id="Fill-36" fill="#C8AD79" mask="url(#mask-5)"></path>
                    <path d="M386.056604,179.440822 C347.684116,167.771638 334.752827,174.85376 326.671075,152.727 C318.590541,130.601459 294.344068,76.8243374 347.684116,35.8354624 C401.022946,-5.15219479 452.74567,66.3253599 443.047811,99.2713508 C433.349953,132.217342 411.810794,167.227328 411.810794,167.227328 L386.056604,179.440822 Z" id="Fill-37" fill="#C1A166" mask="url(#mask-5)"></path>
                    <path d="M235.712154,302.333045 C229.056522,293.423161 236.289422,266.232003 243.343295,257.632632 C245.997023,254.397213 249.707858,251.109433 249.88323,247.159226 C249.919766,246.34824 249.223147,245.604228 248.412049,245.570133 C240.36318,245.22796 227.028777,254.690678 223.678431,261.724092 C213.395997,242.148406 187.511496,225.967658 166.337696,219.707481 C163.67179,218.918414 161.802367,223.540789 163.919017,225.341762 C171.160441,231.499652 184.868729,240.871043 192.476731,246.578385 C188.915694,245.173164 182.815409,242.808397 179.088742,241.931656 C174.717825,240.902703 171.559901,246.032857 174.480341,249.443624 L183.0602,257.840858 L174.306186,254.884291 C170.072888,253.453498 166.805356,258.802838 170.055838,261.868997 C172.082365,263.780781 174.312276,265.473378 176.704163,266.902954 L172.447725,266.561999 C168.096293,266.21252 165.848115,271.574037 169.09616,274.49042 C174.119853,279.000767 180.39064,282.431017 186.238827,285.95503 C195.349675,291.444405 204.755245,298.916189 206.149701,309.460222" id="Fill-38" fill="#C1A166" mask="url(#mask-5)"></path>
                    <path d="M362.231026,208.434901 C368.696671,187.1654 358.577431,170.040937 358.577431,170.040937 L420.418176,121.070063 C420.418176,121.070063 430.072191,194.137929 449.467908,215.702113 C468.864843,237.265079 362.231026,208.434901 362.231026,208.434901" id="Fill-39" fill="#C1A166" mask="url(#mask-5)"></path>
                    <path d="M385.648741,215.974146 C385.648741,215.974146 372.628547,112.037679 397.33172,105.146735 C422.034892,98.2570098 426.981859,157.258048 426.981859,157.258048 C426.981859,157.258048 434.876059,197.3921 449.467299,215.701382 C464.059757,234.010663 385.648741,215.974146 385.648741,215.974146" id="Fill-40" fill="#B48F48" mask="url(#mask-5)"></path>
                    <path d="M416.814879,154.806339 C415.750465,158.953812 422.656977,161.700935 426.787975,159.561443 C430.921408,157.420733 432.530208,152.916474 433.805313,148.816491 C437.199502,137.887666 440.593692,126.961277 443.987881,116.033671 C444.084093,117.180741 444.140114,118.331464 444.109668,119.482187 C454.298326,106.109446 458.881151,88.5977558 456.54894,71.949412 C454.216729,55.2998506 445.001145,39.7206442 431.529123,29.6600375 C438.328463,28.0429368 445.126585,26.4270538 451.925925,24.8111708 C443.176783,19.3595445 431.477973,19.173237 422.454812,24.09273 C422.127206,23.8978986 421.797164,23.707938 421.465905,23.5167597 C424.506914,18.5290756 425.466592,12.281076 423.957657,6.62731208 C421.939655,10.3461566 419.921653,14.065001 417.90365,17.7838455 L418.969282,22.1346744 C402.843533,13.556004 383.036178,9.55952475 365.436812,15.0671651 C350.375476,19.7808674 338.960428,30.5757451 326.965676,39.9520065 C314.968489,49.328268 300.329753,57.9860886 284.41713,56.8146648 C289.893868,63.5546138 298.591859,68.0613078 307.814751,69.2838749 C303.058988,69.4543523 298.325147,70.1265207 293.749629,71.2979445 C297.665064,75.140994 303.2234,77.5812574 309.005822,78.1608808 C306.19499,78.5201012 303.468191,79.4138903 301.09579,80.8057172 C299.466286,81.7616088 341.427822,88.8705197 341.045413,90.4754434 C337.565973,105.147466 340.952855,117.117421 343.03784,126.979543 C345.486966,121.882266 347.934875,116.786207 350.385219,111.690148 C350.675071,115.451612 350.967358,119.214294 351.258428,122.975758 C355.142199,119.278832 359.025971,115.581906 362.909742,111.88498 C359.848029,123.352026 369.039256,135.397477 371.97431,146.891313 C374.909365,158.38393 380.812356,164.420051 393.143239,168.718519 C407.510391,172.574963 416.814879,154.806339 416.814879,154.806339" id="Fill-41" fill="#FFE080" mask="url(#mask-5)"></path>
                </g>
                <g id="Group-45" transform="translate(284.000000, 6.000000)">
                    <mask id="mask-7" fill="white">
                        <use xlink:href="#path-6"></use>
                    </mask>
                    <g id="Clip-44"></g>
                    <path d="M132.868834,-2.22001644 C113.260372,-1.27470814 84.1500503,-2.67201475 83.6000643,33.3602701 C83.0512951,69.3913398 97.7281343,94.6242671 98.369379,115.196266 C99.0106238,135.769479 111.277015,150.769262 121.332512,150.84095 C131.385575,150.912638 132.868834,138.893371 132.868834,138.893371 C132.868834,138.893371 135.830484,150.938154 149.909883,142.417013 C163.988064,133.895873 200.897966,90.5101104 188.211785,56.5737855 C175.525603,22.6374606 180.137211,17.3665771 180.137211,17.3665771 L132.868834,-2.22001644 Z" id="Fill-43" fill="#FFD840" mask="url(#mask-7)"></path>
                </g>
                <g id="Group-52" transform="translate(343.000000, 4.000000)">
                    <path d="M54.0862667,112.589858 C54.0862667,128.371277 42.1720444,141.163414 27.4760444,141.163414 C12.7788222,141.163414 0.8646,128.371277 0.8646,112.589858 C0.8646,96.8084393 12.7788222,84.0163026 27.4760444,84.0163026 C42.1720444,84.0163026 54.0862667,96.8084393 54.0862667,112.589858" id="Fill-46" fill="#2E5078"></path>
                    <path d="M31.7711778,95.0632957 C21.6169556,10.4762017 50.8464,10.519894 50.8464,10.519894 L65.1231778,14.3199111 C65.1231778,14.3199111 58.1455111,-11.2255248 31.7711778,6.4273812 C5.39562222,24.0815009 17.6972889,81.5878598 17.6972889,95.0632957 L31.7711778,95.0632957 Z" id="Fill-48" fill="#7CB2F2"></path>
                    <path d="M45.5307111,112.589858 C45.5307111,125.627157 35.9301556,136.197055 24.0843778,136.197055 C12.2410444,136.197055 2.63804444,125.627157 2.63804444,112.589858 C2.63804444,99.552559 12.2410444,88.9838752 24.0843778,88.9838752 C35.9301556,88.9838752 45.5307111,99.552559 45.5307111,112.589858" id="Fill-50" fill="#9DC5F5"></path>
                </g>
                <g id="Group-71">
                    <g id="Group-55">
                        <mask id="mask-9" fill="white">
                            <use xlink:href="#path-8"></use>
                        </mask>
                        <g id="Clip-54"></g>
                        <path d="M287.879398,354.24813 C248.279302,331.602227 231.767489,293.034829 231.767489,293.034829 L203.829668,301.986106 C203.829668,301.986106 229.669108,406.556395 266.845653,421.141769 C304.02098,435.727142 318.590298,343.702757 318.590298,343.702757 L287.879398,354.24813 Z" id="Fill-53" fill="#C1A166" mask="url(#mask-9)"></path>
                    </g>
                    <g id="Group-58">
                        <mask id="mask-11" fill="white">
                            <use xlink:href="#path-10"></use>
                        </mask>
                        <g id="Clip-57"></g>
                        <path d="M271.63381,299.282348 C271.63381,299.282348 250.703584,385.153035 257.169229,409.633975 C263.634874,434.112481 293.946314,415.988457 293.946314,415.988457 L341.218959,343.702878 L271.63381,299.282348 Z" id="Fill-56" fill="#B48F48" mask="url(#mask-11)"></path>
                    </g>
                    <g id="Group-61">
                        <mask id="mask-13" fill="white">
                            <use xlink:href="#path-12"></use>
                        </mask>
                        <g id="Clip-60"></g>
                        <path d="M413.953384,191.755436 C360.917802,184.226677 320.205795,210.19828 300.811297,234.137713 C281.414362,258.07593 257.169107,345.987304 257.169107,345.987304 L294.926573,368.252328 L509.318297,343.703243 C509.318297,343.703243 549.725837,211.030617 413.953384,191.755436" id="Fill-59" fill="#14D997" mask="url(#mask-13)"></path>
                    </g>
                    <g id="Group-64">
                        <mask id="mask-15" fill="white">
                            <use xlink:href="#path-14"></use>
                        </mask>
                        <g id="Clip-63"></g>
                        <path d="M536.110959,343.702757 C536.110959,343.702757 522.067759,199.484492 416.749236,193.203022 C297.5775,186.094082 277.281781,358.430504 277.281781,358.430504 L346.066792,393.601624" id="Fill-62" fill-opacity="0.3" fill="#0FA371" mask="url(#mask-15)"></path>
                    </g>
                    <g id="Group-67">
                        <mask id="mask-17" fill="white">
                            <use xlink:href="#path-16"></use>
                        </mask>
                        <g id="Clip-66"></g>
                        <path d="M279.302584,421.141404 L319.856268,283.862934 C322.927724,273.467235 332.570778,266.403319 343.417083,266.602886 L478.804691,268.989163 C494.25209,269.272693 505.444268,283.803307 501.767534,298.796331 L471.766649,421.141404" id="Fill-65" fill="#587393" mask="url(#mask-17)"></path>
                    </g>
                    <g id="Group-70">
                        <mask id="mask-19" fill="white">
                            <use xlink:href="#path-18"></use>
                        </mask>
                        <g id="Clip-69"></g>
                        <path d="M507.701581,299.282348 C507.701581,299.282348 358.217186,223.554252 293.945583,415.988457 C242.587001,569.760348 494.770291,336.82271 494.770291,336.82271 L507.701581,299.282348 Z" id="Fill-68" fill="#506C8E" mask="url(#mask-19)"></path>
                    </g>
                </g>
            </g>
        </g>
    </g>
</svg>